# xmcd
#
# Track frame offsets: 
#        151
#        18317
#        31425
#        49000
#        67241
#        92776
#        102874
#        125963
#        164472
#        186351
#        207656
#        226493
#        267972
#        303671
#        330732
#        346217
#
# Disc length: 4764 seconds
#
# Revision: 0
# Processed by: cddbd v1.5.2PL0 Copyright (c) Steve Scherf et al.
# Submitted via: ExactAudioCopy v0.99pb5
#
DISCID=f6129a10
DTITLE=Van Morrison - Irish Troubadour
DYEAR=1900
DGENRE=Rock
TTITLE0=I've Been Working
TTITLE1=What'd I Say
TTITLE2=Bring It On home To Me
TTITLE3=The Way Young Lovers Do
TTITLE4=Purple Heather
TTITLE5=Hey! Good Looking
TTITLE6=Being Green
TTITLE7=Listen To The Lion
TTITLE8=Hard Nose The Highway
TTITLE9=Moondance
TTITLE10=Snow In San Anselmo
TTITLE11=Caravan
TTITLE12=Cyprus Avenue
TTITLE13=Saint Dominic's Preview
TTITLE14=These Dreams of You 
TTITLE15=More and More
EXTD=
EXTT0=
EXTT1=
EXTT2=
EXTT3=
EXTT4=
EXTT5=
EXTT6=
EXTT7=
EXTT8=
EXTT9=
EXTT10=
EXTT11=
EXTT12=
EXTT13=
EXTT14=
EXTT15=
PLAYORDER=
